<svg xmlns="http://www.w3.org/2000/svg" xmlns:xlink="http://www.w3.org/1999/xlink" width="70" zoomAndPan="magnify" viewBox="0 0 52.5 52.499999" height="70" preserveAspectRatio="xMidYMid meet" version="1.0"><defs><clipPath id="id1"><path d="M 12.636719 12.875 L 39.636719 12.875 L 39.636719 39.875 L 12.636719 39.875 Z M 12.636719 12.875 " clip-rule="nonzero"/></clipPath></defs><g clip-path="url(#id1)"><path fill="rgb(100%, 100%, 100%)" d="M 39.050781 17.210938 C 38.746094 16.410156 38.167969 15.542969 37.417969 14.777344 C 36.261719 13.605469 34.90625 12.875 33.875 12.875 C 33.234375 12.875 32.835938 13.140625 32.613281 13.367188 L 31.417969 14.582031 L 14.433594 31.875 C 14.429688 31.878906 14.425781 31.886719 14.425781 31.886719 C 14.414062 31.898438 14.40625 31.914062 14.394531 31.925781 C 14.359375 31.96875 14.328125 32.007812 14.304688 32.054688 C 14.292969 32.070312 14.285156 32.089844 14.277344 32.105469 C 14.253906 32.15625 14.234375 32.210938 14.21875 32.265625 C 14.21875 32.273438 14.210938 32.28125 14.210938 32.292969 L 13.195312 36.972656 C 13.191406 36.972656 13.195312 36.972656 13.191406 36.976562 L 12.785156 38.84375 C 12.722656 39.125 12.804688 39.421875 13.007812 39.625 C 13.164062 39.785156 13.378906 39.875 13.597656 39.875 C 13.65625 39.875 13.714844 39.867188 13.777344 39.855469 L 15.613281 39.441406 C 15.613281 39.4375 15.613281 39.4375 15.613281 39.4375 L 20.214844 38.402344 C 20.222656 38.402344 20.230469 38.398438 20.242188 38.394531 C 20.292969 38.378906 20.34375 38.359375 20.398438 38.335938 C 20.414062 38.328125 20.429688 38.320312 20.449219 38.308594 C 20.492188 38.28125 20.535156 38.253906 20.574219 38.21875 C 20.585938 38.207031 20.597656 38.195312 20.609375 38.1875 C 20.613281 38.183594 20.621094 38.179688 20.621094 38.175781 L 37.605469 20.886719 L 37.609375 20.882812 L 38.800781 19.667969 C 39.117188 19.347656 39.570312 18.601562 39.050781 17.210938 Z M 33.773438 14.578125 C 33.789062 14.574219 33.820312 14.570312 33.875 14.570312 C 34.347656 14.570312 35.289062 15.007812 36.238281 15.976562 C 37.417969 17.179688 37.695312 18.238281 37.613281 18.480469 L 37.019531 19.085938 L 33.183594 15.179688 Z M 20.035156 36.378906 L 16.199219 32.472656 L 32.007812 16.378906 L 35.84375 20.285156 Z M 15.703125 37.683594 L 14.917969 36.886719 L 15.507812 34.167969 L 18.371094 37.082031 Z M 15.703125 37.683594 " fill-opacity="1" fill-rule="nonzero"/></g></svg>