<svg xmlns="http://www.w3.org/2000/svg" xmlns:xlink="http://www.w3.org/1999/xlink" width="70" zoomAndPan="magnify" viewBox="0 0 52.5 52.499999" height="70" preserveAspectRatio="xMidYMid meet" version="1.0"><defs><clipPath id="id1"><path d="M 12.566406 12.566406 L 39.566406 12.566406 L 39.566406 39.566406 L 12.566406 39.566406 Z M 12.566406 12.566406 " clip-rule="nonzero"/></clipPath></defs><g clip-path="url(#id1)"><path fill="rgb(100%, 100%, 100%)" d="M 38.089844 23.957031 L 28.175781 23.957031 L 28.175781 14.0625 C 28.175781 13.242188 27.519531 12.566406 26.699219 12.566406 L 25.433594 12.566406 C 24.609375 12.566406 23.957031 13.242188 23.957031 14.0625 L 23.957031 23.957031 L 14.042969 23.957031 C 13.21875 23.957031 12.566406 24.609375 12.566406 25.433594 L 12.566406 26.699219 C 12.566406 27.519531 13.21875 28.175781 14.042969 28.175781 L 23.957031 28.175781 L 23.957031 38.109375 C 23.957031 38.933594 24.609375 39.566406 25.433594 39.566406 L 26.699219 39.566406 C 27.519531 39.566406 28.175781 38.910156 28.175781 38.109375 L 28.175781 28.175781 L 38.089844 28.175781 C 38.910156 28.175781 39.566406 27.519531 39.566406 26.699219 L 39.566406 25.433594 C 39.566406 24.609375 38.910156 23.957031 38.089844 23.957031 Z M 38.089844 23.957031 " fill-opacity="1" fill-rule="nonzero"/></g></svg>